<?xml version="1.0" encoding="UTF-8"?>
<svg width="26px" height="26px" viewBox="0 0 26 26" version="1.1" xmlns="http://www.w3.org/2000/svg" xmlns:xlink="http://www.w3.org/1999/xlink">
    <!-- Generator: sketchtool 53.1 (72631) - https://sketchapp.com -->
    <title>A1FAF414-1750-479E-B32B-8BE8C190D43F</title>
    <desc>Created with sketchtool.</desc>
    <g id="New-onboarding" stroke="none" stroke-width="1" fill="none" fill-rule="evenodd">
        <g id="New-1920px---Section-3---Votre-société" transform="translate(-1583.000000, -32.000000)" fill="#FFFFFF">
            <g id="Top-Bar">
                <g id="Material-Icons-/-Help-White" transform="translate(1581.000000, 30.000000)">
                    <g id="Help">
                        <g id="ic_help">
                            <path d="M15,2.5 C8.1,2.5 2.5,8.1 2.5,15 C2.5,21.9 8.1,27.5 15,27.5 C21.9,27.5 27.5,21.9 27.5,15 C27.5,8.1 21.9,2.5 15,2.5 L15,2.5 Z M16.25,23.75 L13.75,23.75 L13.75,21.25 L16.25,21.25 L16.25,23.75 L16.25,23.75 Z M18.8375,14.0625 L17.7125,15.2125 C16.8125,16.125 16.25,16.875 16.25,18.75 L13.75,18.75 L13.75,18.125 C13.75,16.75 14.3125,15.5 15.2125,14.5875 L16.7625,13.0125 C17.225,12.5625 17.5,11.9375 17.5,11.25 C17.5,9.875 16.375,8.75 15,8.75 C13.625,8.75 12.5,9.875 12.5,11.25 L10,11.25 C10,8.4875 12.2375,6.25 15,6.25 C17.7625,6.25 20,8.4875 20,11.25 C20,12.35 19.55,13.35 18.8375,14.0625 L18.8375,14.0625 Z" id="Shape"></path>
                        </g>
                    </g>
                </g>
            </g>
        </g>
    </g>
</svg>