<?xml version="1.0" encoding="UTF-8"?>
<svg width="25px" height="26px" viewBox="0 0 25 26" version="1.1" xmlns="http://www.w3.org/2000/svg" xmlns:xlink="http://www.w3.org/1999/xlink">
    <!-- Generator: sketchtool 53.1 (72631) - https://sketchapp.com -->
    <title>82C1A3B2-28CC-4FC8-8728-24E7655737EA</title>
    <desc>Created with sketchtool.</desc>
    <g id="New-onboarding" stroke="none" stroke-width="1" fill="none" fill-rule="evenodd">
        <g id="New-1920px---Section-3---Votre-société" transform="translate(-1523.000000, -32.000000)" fill="#FFFFFF">
            <g id="Top-Bar">
                <g id="Material-Icons-/-Settings" transform="translate(1521.000000, 30.000000)">
                    <g id="Settings">
                        <g id="ic_settings">
                            <path d="M23.9491645,16.225 C23.9991645,15.825 24.0366645,15.425 24.0366645,15 C24.0366645,14.575 23.9991645,14.175 23.9491645,13.775 L26.5866645,11.7125 C26.8241645,11.525 26.8866645,11.1875 26.7366645,10.9125 L24.2366645,6.5875 C24.0866645,6.3125 23.7491645,6.2125 23.4741645,6.3125 L20.3616645,7.5625 C19.7116645,7.0625 19.0116645,6.65 18.2491645,6.3375 L17.7741645,3.025 C17.7366645,2.725 17.4741645,2.5 17.1616645,2.5 L12.1616645,2.5 C11.8491645,2.5 11.5866645,2.725 11.5491645,3.025 L11.0741645,6.3375 C10.3116645,6.65 9.6116645,7.075 8.9616645,7.5625 L5.8491645,6.3125 C5.5616645,6.2 5.2366645,6.3125 5.0866645,6.5875 L2.5866645,10.9125 C2.4241645,11.1875 2.4991645,11.525 2.7366645,11.7125 L5.3741645,13.775 C5.3241645,14.175 5.2866645,14.5875 5.2866645,15 C5.2866645,15.4125 5.3241645,15.825 5.3741645,16.225 L2.7366645,18.2875 C2.4991645,18.475 2.4366645,18.8125 2.5866645,19.0875 L5.0866645,23.4125 C5.2366645,23.6875 5.5741645,23.7875 5.8491645,23.6875 L8.9616645,22.4375 C9.6116645,22.9375 10.3116645,23.35 11.0741645,23.6625 L11.5491645,26.975 C11.5866645,27.275 11.8491645,27.5 12.1616645,27.5 L17.1616645,27.5 C17.4741645,27.5 17.7366645,27.275 17.7741645,26.975 L18.2491645,23.6625 C19.0116645,23.35 19.7116645,22.925 20.3616645,22.4375 L23.4741645,23.6875 C23.7616645,23.8 24.0866645,23.6875 24.2366645,23.4125 L26.7366645,19.0875 C26.8866645,18.8125 26.8241645,18.475 26.5866645,18.2875 L23.9491645,16.225 L23.9491645,16.225 Z M14.6616645,19.375 C12.2491645,19.375 10.2866645,17.4125 10.2866645,15 C10.2866645,12.5875 12.2491645,10.625 14.6616645,10.625 C17.0741645,10.625 19.0366645,12.5875 19.0366645,15 C19.0366645,17.4125 17.0741645,19.375 14.6616645,19.375 L14.6616645,19.375 Z" id="Shape"></path>
                        </g>
                    </g>
                </g>
            </g>
        </g>
    </g>
</svg>